PathFileType	4	(X/Y/Z)	C:\Users\86182\Documents\cortex\Trimmed_M4_H14.trc
DataRate	CameraRate	NumFrames	NumMarkers	Units	OrigDataRate	OrigDataStartFrame	OrigNumFrames
100.00	100.00	       98	2	mm	100.00	361	       901
Frame#	Time	gripper			box			
		X1	Y1	Z1	X2	Y2	Z2	

361	3.600	276.08224	151.16168	292.30496	278.41348	147.61603	155.83890	
362	3.610	276.07266	151.15242	292.27298	278.38550	147.57875	155.79520	
363	3.620	276.06827	151.14624	292.24625	278.36829	147.55014	155.75928	
364	3.630	276.06906	151.14212	292.22720	278.35910	147.53110	155.73402	
365	3.640	276.07538	151.13892	292.21707	278.35516	147.52084	155.72018	
366	3.650	276.08667	151.13573	292.21548	278.35538	147.51692	155.71646	
367	3.660	276.10123	151.13211	292.22055	278.36035	147.51543	155.72005	
368	3.670	276.11670	151.12808	292.22943	278.37170	147.51202	155.72728	
369	3.680	276.13120	151.12398	292.23901	278.39038	147.50349	155.73431	
370	3.690	276.14383	151.12029	292.24670	278.41550	147.48915	155.73805	
371	3.700	276.15427	151.11749	292.25095	278.44379	147.47113	155.73674	
372	3.710	276.16229	151.11603	292.25116	278.47025	147.45355	155.73048	
373	3.720	276.16779	151.11601	292.24774	278.48981	147.44078	155.72108	
374	3.730	276.17078	151.11729	292.24179	278.49893	147.43564	155.71129	
375	3.740	276.17148	151.11946	292.23499	278.49646	147.43858	155.70367	
376	3.750	276.17020	151.12195	292.22910	278.48389	147.44815	155.69986	
377	3.760	276.16742	151.12418	292.22571	278.46423	147.46196	155.70036	
378	3.770	276.16376	151.12570	292.22574	278.44113	147.47760	155.70477	
379	3.780	276.15994	151.12634	292.22894	278.41803	147.49306	155.71205	
380	3.790	276.15659	151.12608	292.23392	278.39792	147.50668	155.72058	
381	3.800	276.15405	151.12524	292.23895	278.38324	147.51712	155.72844	
382	3.810	276.15222	151.12430	292.24249	278.37537	147.52339	155.73383	
383	3.820	276.15079	151.12364	292.24371	278.37411	147.52554	155.73572	
384	3.830	276.14951	151.12341	292.24249	278.37805	147.52435	155.73412	
385	3.840	276.14862	151.12340	292.23944	278.38577	147.52043	155.72975	
386	3.850	276.14844	151.12331	292.23575	278.39615	147.51430	155.72377	
387	3.860	276.14923	151.12292	292.23288	278.40808	147.50668	155.71765	
388	3.870	276.15115	151.12222	292.23209	278.42075	147.49844	155.71259	
389	3.880	276.15402	151.12129	292.23358	278.43378	147.49011	155.70905	
390	3.890	276.15726	151.12029	292.23682	278.44675	147.48193	155.70706	
391	3.900	276.16028	151.11938	292.24078	278.45880	147.47426	155.70636	
392	3.910	276.16284	151.11877	292.24423	278.46872	147.46811	155.70663	
393	3.920	276.16522	151.11865	292.24609	278.47476	147.46529	155.70755	
394	3.930	276.16776	151.11917	292.24561	278.47516	147.46741	155.70874	
395	3.940	276.17041	151.12041	292.24255	278.46954	147.47447	155.70978	
396	3.950	276.17297	151.12225	292.23737	278.45944	147.48445	155.71027	
397	3.960	276.17496	151.12444	292.23087	278.44714	147.49451	155.71024	
398	3.970	276.17596	151.12650	292.22421	278.43420	147.50262	155.71048	
399	3.980	276.17566	151.12798	292.21878	278.42065	147.50830	155.71230	
400	3.990	276.17383	151.12857	292.21582	278.40607	147.51208	155.71684	
401	4.000	276.17090	151.12831	292.21613	278.39090	147.51474	155.72426	
402	4.010	276.16751	151.12746	292.21960	278.37729	147.51651	155.73332	
403	4.020	276.16434	151.12637	292.22522	278.36856	147.51678	155.74184	
404	4.030	276.16171	151.12534	292.23132	278.36746	147.51486	155.74751	
405	4.040	276.15985	151.12463	292.23627	278.37430	147.51093	155.74878	
406	4.050	276.15903	151.12447	292.23895	278.38705	147.50630	155.74527	
407	4.060	276.15952	151.12491	292.23865	278.40283	147.50250	155.73770	
408	4.070	276.16138	151.12587	292.23541	278.41959	147.50006	155.72719	
409	4.080	276.16422	151.12720	292.22995	278.43628	147.49829	155.71524	
410	4.090	276.16739	151.12854	292.22354	278.45178	147.49625	155.70363	
411	4.100	276.17044	151.12941	292.21799	278.46457	147.49371	155.69415	
412	4.110	276.17291	151.12955	292.21494	278.47290	147.49123	155.68825	
413	4.120	276.17444	151.12891	292.21530	278.47528	147.48961	155.68666	
414	4.130	276.17459	151.12761	292.21893	278.47076	147.48959	155.68958	
415	4.140	276.17313	151.12598	292.22461	278.45914	147.49168	155.69653	
416	4.150	276.17010	151.12445	292.23059	278.44128	147.49590	155.70650	
417	4.160	276.16595	151.12343	292.23541	278.41925	147.50171	155.71799	
418	4.170	276.16125	151.12306	292.23807	278.39600	147.50822	155.72922	
419	4.180	276.15674	151.12328	292.23816	278.37479	147.51439	155.73857	
420	4.190	276.15302	151.12389	292.23593	278.35834	147.51958	155.74501	
421	4.200	276.15045	151.12479	292.23206	278.34772	147.52376	155.74843	
422	4.210	276.14941	151.12590	292.22778	278.34286	147.52707	155.74927	
423	4.220	276.15033	151.12714	292.22424	278.34344	147.52931	155.74802	
424	4.230	276.15289	151.12834	292.22235	278.34921	147.53003	155.74489	
425	4.240	276.15625	151.12933	292.22226	278.35950	147.52908	155.74008	
426	4.250	276.15958	151.12997	292.22348	278.37262	147.52684	155.73416	
427	4.260	276.16263	151.13020	292.22525	278.38651	147.52386	155.72787	
428	4.270	276.16562	151.12991	292.22681	278.39905	147.52068	155.72205	
429	4.280	276.16873	151.12914	292.22769	278.40854	147.51765	155.71741	
430	4.290	276.17175	151.12811	292.22748	278.41412	147.51515	155.71437	
431	4.300	276.17422	151.12720	292.22607	278.41608	147.51331	155.71284	
432	4.310	276.17578	151.12656	292.22366	278.41565	147.51218	155.71242	
433	4.320	276.17618	151.12614	292.22083	278.41434	147.51170	155.71260	
434	4.330	276.17523	151.12581	292.21854	278.41302	147.51187	155.71312	
435	4.340	276.17303	151.12544	292.21783	278.41153	147.51295	155.71394	
436	4.350	276.16983	151.12512	292.21933	278.40878	147.51541	155.71544	
437	4.360	276.16611	151.12509	292.22287	278.40326	147.51956	155.71812	
438	4.370	276.16202	151.12553	292.22754	278.39401	147.52542	155.72229	
439	4.380	276.15781	151.12651	292.23218	278.38168	147.53255	155.72748	
440	4.390	276.15390	151.12784	292.23575	278.36841	147.53986	155.73268	
441	4.400	276.15115	151.12926	292.23773	278.35706	147.54602	155.73666	
442	4.410	276.15030	151.13036	292.23804	278.35004	147.55003	155.73863	
443	4.420	276.15149	151.13083	292.23721	278.34836	147.55144	155.73842	
444	4.430	276.15427	151.13054	292.23602	278.35175	147.55019	155.73642	
445	4.440	276.15778	151.12949	292.23532	278.35922	147.54652	155.73325	
446	4.450	276.16153	151.12776	292.23560	278.36932	147.54105	155.72968	
447	4.460	276.16507	151.12558	292.23676	278.38000	147.53474	155.72661	
448	4.470	276.16809	151.12335	292.23843	278.38907	147.52875	155.72485	
449	4.480	276.17047	151.12149	292.23993	278.39508	147.52383	155.72481	
450	4.490	276.17236	151.12032	292.24069	278.39810	147.52031	155.72603	
451	4.500	276.17395	151.12000	292.24033	278.39920	147.51805	155.72757	
452	4.510	276.17548	151.12059	292.23865	278.39966	147.51677	155.72839	
453	4.520	276.17697	151.12204	292.23569	278.40002	147.51637	155.72800	
454	4.530	276.17831	151.12416	292.23184	278.39981	147.51703	155.72664	
455	4.540	276.17917	151.12665	292.22775	278.39822	147.51898	155.72501	
456	4.550	276.17914	151.12918	292.22412	278.39423	147.52238	155.72401	
457	4.560	276.17798	151.13139	292.22168	278.38690	147.52721	155.72466	
458	4.570	276.17557	151.13298	292.22092	278.37643	147.53316	155.72733	
